PathFileType	4	(X/Y/Z)	C:/Users/beibeiliu/ov580/test_trc/User2\sequence.35_training_dense_left.trc
DataRate	CameraRate	NumFrames	NumMarkers	Units	OrigDataRate	OrigDataStartFrame	OrigNumFrames
120	120	17	19	mm	120	1	56
Frame#	Time	ThumbCMC			ThumbMCP			ThumbIP			ThumbTip			IndexMCP			IndexPIP			IndexTip			MiddleMCP			MiddlePIP			MiddleTip			RingMCP			RingPIP			RingTip			PinkyMCP			PinkyPIP			PinkyTip			BackHand1			BackHand2			BackHand3	
		X0	Y0	Z0	X1	Y1	Z1	X2	Y2	Z2	X3	Y3	Z3	X4	Y4	Z4	X5	Y5	Z5	X6	Y6	Z6	X7	Y7	Z7	X8	Y8	Z8	X9	Y9	Z9	X10	Y10	Z10	X11	Y11	Z11	X12	Y12	Z12	X13	Y13	Z13	X14	Y14	Z14	X15	Y15	Z15	X16	Y16	Z16	X17	Y17	Z17	X18	Y18	Z18	
0	0	-287.252	27.7674	-18.3634	-285.151	45.7111	-49.681	-288.756	57.7097	-83.4014	-274.902	59.0887	-112.86	-267.948	-18.8384	-86.7775	-261.765	-12.2099	-117.692	-252.379	17.9925	-138.231	-248.582	-26.9696	-92.6117	-239.473	-14.8191	-127.044	-232.898	21.979	-137.494	-228.75	-25.2944	-89.0164	-222.784	-17.2673	-116.469	-221.204	14.8945	-130.841	-207.592	-15.6159	-74.0543	-205.724	-10.357	-101.68	-211.061	9.75625	-124.711	-231.98	-21.6071	-29.7367	-232.915	-15.1357	7.79518	-267.087	-15.0838	-14.6184	
1	0.00833333	-298.279	23.9998	-17.8492	-299.351	38.948	-50.3376	-300.178	45.8045	-82.3957	-294.582	47.1792	-112.849	-295.723	-30.0461	-81.7172	-290.688	-25.2622	-115.537	-280.748	1.52724	-135.728	-279.85	-41.7138	-89.691	-274.508	-34.9296	-121.818	-262.821	1.23186	-137.989	-254.535	-43.2681	-83.9587	-256.337	-36.5581	-114.596	-251.689	-1.98258	-133.355	-235.896	-31.5166	-71.3057	-235.854	-29.7323	-108.008	-238.212	-14.9867	-128.565	-250.841	-30.734	-24.7389	-250.96	-24.067	6.7176	-286.505	-19.2222	-11.5042	
2	0.0166667	-305.895	27.4778	-16.2855	-304.579	39.2775	-48.5877	-310.403	46.772	-87.1756	-304.704	45.3676	-109.896	-327.68	-30.0336	-80.0516	-321.53	-29.8267	-108.147	-313.019	-9.06521	-132.234	-308.177	-47.5743	-80.4148	-306.791	-43.2768	-117.28	-293.366	-13.6073	-136.907	-289.656	-50.9081	-77.627	-288.177	-46.7312	-114.06	-278.264	-19.1178	-131.888	-263.514	-47.5123	-71.3469	-266.134	-46.4305	-104.77	-268.353	-30.5057	-126.821	-273.197	-39.1844	-22.773	-268.833	-27.5835	6.98637	-301.911	-17.4774	-5.58583	
3	0.025	-312.957	34.8293	-21.9328	-306.64	43.2811	-53.2695	-309.522	51.8688	-87.2883	-305.915	50.2252	-112.11	-346.774	-21.0131	-74.9318	-347.955	-19.7308	-107.944	-330.029	-9.44492	-128.221	-335.816	-39.0498	-74.8257	-334.053	-38.0906	-114.921	-313.059	-15.3661	-135.298	-318.755	-49.6137	-75.9803	-317.42	-48.0728	-109.51	-306.614	-26.0048	-128.182	-292.401	-47.8204	-67.1174	-299.92	-49.8719	-100.326	-296.764	-37.1765	-125.725	-296.18	-38.056	-23.7546	-283.155	-30.3755	6.64155	-318.303	-10.2309	-5.97999	
4	0.0333333	-306.678	42.507	-18.7057	-303.409	52.9763	-55.7192	-303.279	64.4121	-87.3524	-302.176	58.1445	-115.969	-362.891	2.76758	-68.04	-365.896	-0.737093	-99.4479	-349.921	8.85235	-126.928	-360.467	-19.584	-75.8195	-356.924	-16.2516	-113.081	-334.155	-3.06796	-133.502	-339.287	-38.1385	-73.6855	-343.827	-31.978	-108.009	-322.624	-13.9331	-127.81	-315.966	-45.4921	-68.7772	-326.31	-39.3902	-96.6043	-320.138	-27.5804	-123.957	-314.55	-31.0704	-21.4866	-301.923	-21.3765	6.40981	-325.82	2.97415	-5.50771	
5	0.0416667	-298.523	54.1841	-19.7985	-290.185	63.0765	-52.2816	-289.293	71.6017	-87.6967	-289.177	67.28	-114.822	-364.626	39.1333	-62.1967	-369.043	33.7657	-97.5742	-354.426	39.2605	-122.424	-369.342	12.9551	-71.1821	-370.865	17.8297	-106.382	-342.288	20.6993	-130.475	-358.418	-8.62314	-70.3728	-361.076	-2.99994	-104.642	-339.293	6.64569	-124.807	-339.778	-21.4118	-64.5445	-348.111	-14.1551	-91.8437	-337.054	-4.54155	-119.409	-328.409	-8.62779	-16.4363	-311.851	-10.2394	8.77367	-327.379	26.8555	-1.40031	
6	0.05	-276.837	63.1131	-16.9549	-266.545	68.7438	-50.9467	-262.328	72.6078	-81.6837	-267.953	70.5059	-109.49	-349.644	73.7681	-60.1964	-355.037	79.3525	-87.0172	-342.584	72.3409	-116.78	-362.953	55.771	-65.353	-364.885	62.7808	-97.631	-338.356	55.2172	-128.009	-359.207	35.9024	-62.4343	-364.685	40.1595	-95.8925	-339.221	42.7702	-123.162	-351.469	10.38	-61.4334	-356.093	23.1757	-92.8718	-344.369	28.8739	-116.726	-330.593	17.9096	-13.8271	-316.96	6.24565	12.7391	-316.66	45.2796	3.77961	
7	0.0583333	-250.053	58.2168	-11.3638	-239.668	61.4628	-46.2286	-235.298	70.3814	-83.0508	-241.413	69.2906	-109.333	-314.743	101.712	-54.0936	-320.003	109.302	-86.4457	-315.335	98.4471	-112.909	-333.944	91.8835	-59.5126	-336.7	98.1228	-92.6479	-314.198	83.471	-124.799	-340.702	71.7016	-58.379	-346.681	76.0145	-91.5773	-327.681	69.4165	-117.899	-344.685	46.4062	-58.3698	-344.331	57.4384	-84.6907	-331.95	59.8529	-115.019	-324.078	37.9426	-10.6605	-312.136	26.0264	14.2126	-293.548	63.0611	6.23788	
8	0.0666667	-230.259	49.4864	-13.574	-219.712	50.1121	-47.0699	-214.947	54.4917	-79.4739	-222.465	58.3393	-108.448	-275.486	109.248	-52.46	-281.782	119.361	-86.7317	-275.511	108.204	-117.197	-297.224	106.285	-55.7748	-302.281	112.936	-95.2907	-289.353	93.4455	-123.356	-313.631	91.4262	-58.5725	-316.462	97.5268	-89.8499	-298.484	84.0678	-118.515	-323.608	64.8426	-53.9489	-320.606	77.9378	-82.0566	-311.609	77.2144	-112.417	-303.76	56.5278	-10.4183	-297.509	37.225	17.5584	-268.744	64.9953	5.21119	
9	0.075	-214.553	41.6361	-9.89986	-196.619	38.2716	-43.8501	-188.788	38.6553	-75.4783	-199.146	38.9629	-102.205	-245.113	104.654	-60.8354	-251.597	110.86	-89.8273	-250.005	96.5835	-121.274	-266.696	106.362	-64.951	-267.564	109.376	-101.374	-262.159	83.9799	-127.972	-283.717	94.7209	-64.7386	-289.427	96.4457	-95.0125	-275.187	76.0249	-121.436	-297.461	69.321	-55.5134	-296.78	78.1408	-89.1054	-286.533	72.1154	-114.224	-286.68	62.4329	-11.061	-281.851	49.3499	15.5788	-247.009	66.4971	4.36664	
10	0.0833333	-198.254	39.4583	-8.76851	-182.824	28.2354	-37.2852	-173.976	21.9919	-70.7354	-178.037	17.9406	-99.1538	-229.005	86.9868	-73.8716	-228.965	85.9621	-104.128	-230.065	62.255	-130.232	-249.274	89.1562	-79.8747	-248.301	82.1157	-112.812	-246.327	50.3992	-133.703	-271.461	76.045	-74.9247	-269.064	72.2489	-106.043	-254.736	44.8574	-126.97	-280.738	57.5196	-62.107	-277.787	57.8175	-95.7096	-267.586	43.8967	-117.76	-271.344	60.5648	-15.1043	-267.149	52.6949	12.2253	-234.364	66.9781	-0.574441	
11	0.0916667	-192.676	32.5188	-4.75934	-168.705	18.1631	-30.0039	-157.778	6.16068	-60.8825	-163.22	-4.07096	-85.9161	-217.229	63.4002	-84.3537	-216.516	51.2985	-114.016	-215.432	26.1301	-128.952	-238.542	61.4194	-87.8824	-237.242	43.6334	-121.8	-228.202	6.8214	-132.753	-259.344	49.6071	-82.0622	-253.182	37.7577	-111.455	-242.698	7.55409	-123.639	-267.79	36.1578	-72.4544	-263.501	25.9016	-97.0503	-253.095	3.33773	-117.439	-263.344	51.9684	-22.8459	-262.276	48.3179	9.63313	-223.863	59.9678	-9.09313	
12	0.1	-189.829	33.2692	-9.51682	-167.957	15.9937	-27.3761	-147.206	0.847583	-53.3156	-145.931	-13.1644	-77.8963	-211.561	42.3367	-91.7765	-205.998	24.4277	-115.869	-201.538	-3.49797	-123.69	-231.003	36.8007	-96.0857	-225.863	9.85421	-122.054	-215.893	-23.1724	-123.236	-254.483	23.4583	-88.9955	-240.938	3.33154	-113.188	-226.635	-26.4053	-113.4	-265.246	10.5575	-72.3029	-255.051	-5.17428	-96.163	-236.146	-29.9654	-107.881	-256.303	38.9586	-30.7865	-258.309	41.7195	5.65911	-225.268	53.0673	-13.3378	
13	0.108333	-188.506	36.9593	-5.6969	-160.049	23.4425	-24.6569	-139.979	8	-48.7447	-135.311	-10.2518	-69.8662	-211.065	28.144	-89.7807	-200.907	8.30842	-111.9	-186.562	-24.8271	-113.745	-226.862	17.3009	-99.2302	-212.586	-11.0393	-116.502	-196.883	-40.8361	-109.412	-243.661	2.92195	-91.454	-231.569	-18.7822	-106.305	-209.2	-44.3042	-99.5538	-252.979	-7.82752	-75.8112	-238.56	-32.1325	-92.0128	-217.505	-49.9253	-92.7421	-256.199	27.8517	-34.9569	-260.705	37.2018	-2.11703	-229.083	52.0337	-16.8358	
14	0.116667	-191.604	49.1379	-5.69542	-162.183	40.1881	-17.621	-135.487	27.9219	-38.8667	-127.075	9.25142	-58.7916	-204.917	21.8659	-90.2181	-189.791	1.21946	-105.71	-168.155	-24.2697	-100.703	-216.952	9.81786	-93.8267	-195.343	-17.1909	-107.887	-170.985	-45.5474	-90.7293	-230.195	-8.97692	-87.3017	-210.116	-31.5605	-97.9713	-184.911	-46.3052	-84.9833	-240.999	-24.2717	-72.2063	-221.286	-41.5716	-82.4102	-191.401	-58.1149	-77.9216	-257.77	18.3875	-34.3428	-260.469	29.2723	-5.42748	-234.229	49.0595	-22.4508	
15	0.125	-204.351	62.7471	-6.07664	-172.697	64.0081	-18.1975	-141.359	61.8363	-38.455	-124.784	47.3104	-50.5215	-198.693	28.8449	-87.0283	-173.764	13.6893	-101.042	-145.556	-6.65858	-89.8221	-207.115	7.27789	-89.7799	-170.983	-9.33775	-100.092	-143.987	-21.9753	-81.1992	-212.606	-12.6404	-81.6474	-184.083	-24.6979	-89.4124	-155.099	-30.7872	-71.6435	-217.701	-29.5557	-65.5583	-189.302	-37.062	-73.1662	-159.035	-38.7009	-64.9247	-248.19	9.2436	-37.7063	-261.893	19.3094	-7.6857	-241.588	48.1387	-28.4943	
16	0.133333	-227.39	72.896	-9.39225	-196.692	89.0833	-23.9948	-169.781	97.8741	-38.398	-145.545	89.9105	-55.4306	-199.892	38.8174	-85.101	-166.662	32.8843	-96.5522	-137.171	33.5438	-87.8364	-195.628	14.9575	-86.012	-157.016	13.1595	-95.2077	-127.205	20.0052	-74.972	-190.214	-0.232594	-79.17	-157.58	-3.04281	-84.36	-129.944	10.5118	-64.1083	-188.24	-16.9365	-60.8451	-160.553	-13.5024	-67.559	-135.06	-0.775281	-59.0543	-238.118	1.95509	-34.0681	-255.748	6.94641	-12.0564	-249.015	37.9318	-32.5631	
